<svg width="36" height="36" viewBox="0 0 36 36" fill="none" xmlns="http://www.w3.org/2000/svg">
<path d="M9.48797 13.73V0.428H12.332V13.73H9.48797ZM7.77797 14V13.46H14.096V14H7.77797ZM7.77797 0.967999V0.428H14.096V0.967999H7.77797ZM21.5073 14.234C20.6313 14.234 19.8153 14.06 19.0593 13.712C18.3033 13.364 17.6373 12.878 17.0613 12.254C16.4973 11.618 16.0533 10.886 15.7293 10.058C15.4173 9.23 15.2613 8.342 15.2613 7.394C15.2613 6.398 15.4353 5.468 15.7833 4.604C16.1313 3.74 16.6113 2.984 17.2233 2.336C17.8353 1.688 18.5553 1.184 19.3833 0.823999C20.2113 0.452 21.0993 0.266 22.0473 0.266C22.6353 0.266 23.1513 0.35 23.5953 0.518C24.0393 0.673999 24.5193 0.943999 25.0353 1.328L25.7373 0.428H26.2773V4.676H25.7373C25.6413 4.052 25.4493 3.452 25.1613 2.876C24.8733 2.3 24.4653 1.826 23.9373 1.454C23.4213 1.082 22.7493 0.895999 21.9213 0.895999C21.4533 0.895999 21.0213 0.979999 20.6253 1.148C20.2413 1.316 19.8993 1.634 19.5993 2.102C19.3113 2.57 19.0833 3.242 18.9153 4.118C18.7593 4.994 18.6813 6.14 18.6813 7.556C18.6813 8.756 18.7413 9.746 18.8613 10.526C18.9933 11.306 19.1733 11.918 19.4013 12.362C19.6413 12.806 19.9353 13.118 20.2833 13.298C20.6313 13.478 21.0273 13.568 21.4713 13.568C22.2153 13.568 22.7733 13.376 23.1453 12.992C23.5173 12.608 23.7033 12.074 23.7033 11.39V8.924H26.9793V10.94C26.7873 11.552 26.4093 12.11 25.8453 12.614C25.2933 13.106 24.6333 13.502 23.8653 13.802C23.1093 14.09 22.3233 14.234 21.5073 14.234ZM21.9753 9.14V8.6H28.3653V9.14H21.9753ZM12.2819 32.162L7.38591 18.698H10.4999L13.7579 27.644H13.8299L13.9379 28.31L12.7499 32.162H12.2819ZM12.2819 32.162L13.2179 29.3L17.1059 18.698H17.6999L12.7499 32.162H12.2819ZM6.05391 18.968V18.428H12.0299V18.968H6.05391ZM14.8919 18.968V18.428H18.8699V18.968H14.8919ZM25.5029 31.73L22.2089 22.712H22.1369L22.0289 22.046L23.2529 18.266H23.7209L28.6169 31.73H25.5029ZM16.3589 32V31.46H20.7509V32H16.3589ZM19.5809 28.328V27.806H25.7729V28.328H19.5809ZM23.5229 32V31.46H29.7689V32H23.5229ZM17.9429 31.73L23.2529 18.266H23.7209L22.7849 21.128L18.5369 31.73H17.9429Z" fill="white"/>
</svg>
