<svg width="36" height="36" viewBox="0 0 36 36" fill="none" xmlns="http://www.w3.org/2000/svg">
<path d="M4.5097 17.686V17.176H5.9207C6.54404 17.176 7.04837 17.0967 7.4337 16.938C7.81904 16.768 8.10237 16.462 8.2837 16.02C8.46504 15.5667 8.5557 14.915 8.5557 14.065C8.5557 13.2603 8.48204 12.654 8.3347 12.246C8.18737 11.838 7.96637 11.5603 7.6717 11.413C7.38837 11.2657 7.03137 11.192 6.6007 11.192H0.310703V10.682H7.4507C8.2667 10.682 8.9977 10.8293 9.6437 11.124C10.301 11.4187 10.8224 11.8267 11.2077 12.348C11.593 12.858 11.7857 13.4473 11.7857 14.116C11.7857 14.8187 11.5477 15.442 11.0717 15.986C10.607 16.5187 9.93837 16.938 9.0657 17.244C8.19304 17.5387 7.1447 17.686 5.9207 17.686H4.5097ZM0.310703 23.5V22.99H6.6177V23.5H0.310703ZM1.9257 23.245V10.682H4.6117V23.245H1.9257ZM12.4796 23.5V22.99H13.8566V16.36H12.4796V15.85H16.2026V17.159H16.2706C16.6446 16.5243 17.0413 16.1163 17.4606 15.935C17.88 15.7423 18.254 15.646 18.5826 15.646C19.104 15.646 19.5063 15.782 19.7896 16.054C20.073 16.3147 20.2146 16.6943 20.2146 17.193C20.2146 17.6803 20.09 18.0373 19.8406 18.264C19.6026 18.4907 19.3023 18.604 18.9396 18.604C18.611 18.604 18.3106 18.5077 18.0386 18.315C17.778 18.1223 17.6476 17.8333 17.6476 17.448C17.6476 17.2213 17.6816 17.057 17.7496 16.955C17.829 16.853 17.8686 16.7737 17.8686 16.717C17.8686 16.6943 17.8573 16.6773 17.8346 16.666C17.8233 16.6433 17.7893 16.632 17.7326 16.632C17.5513 16.632 17.336 16.751 17.0866 16.989C16.8486 17.227 16.639 17.5387 16.4576 17.924C16.2876 18.3093 16.2026 18.7287 16.2026 19.182V22.99H17.3076V23.5H12.4796ZM25.6044 23.721C25.0151 23.721 24.4654 23.6247 23.9554 23.432C23.4454 23.2393 22.9978 22.9617 22.6124 22.599C22.2271 22.2363 21.9211 21.8113 21.6944 21.324C21.4791 20.8253 21.3714 20.2757 21.3714 19.675C21.3714 19.0857 21.4791 18.5473 21.6944 18.06C21.9211 17.5613 22.2271 17.1363 22.6124 16.785C22.9978 16.4223 23.4454 16.1447 23.9554 15.952C24.4654 15.748 25.0151 15.646 25.6044 15.646C26.1938 15.646 26.7434 15.748 27.2534 15.952C27.7634 16.1447 28.2111 16.4223 28.5964 16.785C28.9931 17.1363 29.2991 17.5613 29.5144 18.06C29.7411 18.5473 29.8544 19.0857 29.8544 19.675C29.8544 20.2757 29.7411 20.8253 29.5144 21.324C29.2991 21.8113 28.9931 22.2363 28.5964 22.599C28.2111 22.9617 27.7634 23.2393 27.2534 23.432C26.7434 23.6247 26.1938 23.721 25.6044 23.721ZM25.6044 23.126C26.0011 23.126 26.3184 23.0353 26.5564 22.854C26.7944 22.6727 26.9644 22.3383 27.0664 21.851C27.1684 21.3523 27.2194 20.6327 27.2194 19.692C27.2194 18.7513 27.1684 18.0317 27.0664 17.533C26.9644 17.0343 26.7944 16.6943 26.5564 16.513C26.3184 16.3317 26.0011 16.241 25.6044 16.241C25.2078 16.241 24.8904 16.3317 24.6524 16.513C24.4258 16.6943 24.2614 17.0343 24.1594 17.533C24.0574 18.0317 24.0064 18.7513 24.0064 19.692C24.0064 20.6327 24.0574 21.3523 24.1594 21.851C24.2614 22.3383 24.4258 22.6727 24.6524 22.854C24.8904 23.0353 25.2078 23.126 25.6044 23.126ZM31.3482 28.974C30.7589 28.974 30.2659 28.8097 29.8692 28.481C29.4612 28.1637 29.2572 27.7783 29.2572 27.325C29.2572 26.9963 29.3705 26.7243 29.5972 26.509C29.8125 26.305 30.0902 26.203 30.4302 26.203C30.7022 26.203 30.9402 26.2767 31.1442 26.424C31.3595 26.5827 31.4672 26.8377 31.4672 27.189C31.4672 27.427 31.4275 27.5913 31.3482 27.682C31.2689 27.7727 31.2292 27.886 31.2292 28.022C31.2292 28.124 31.2575 28.2033 31.3142 28.26C31.3822 28.3167 31.4729 28.345 31.5862 28.345C31.7902 28.345 31.9659 28.226 32.1132 27.988C32.2605 27.7613 32.3342 27.3137 32.3342 26.645V16.36H30.8722V15.85H34.6802V24.095C34.6802 25.0583 34.5329 25.9027 34.2382 26.628C33.9549 27.3647 33.5639 27.937 33.0652 28.345C32.5665 28.7643 31.9942 28.974 31.3482 28.974ZM33.3542 13.878C32.9915 13.878 32.6742 13.742 32.4022 13.47C32.1302 13.198 31.9942 12.8807 31.9942 12.518C31.9942 12.144 32.1302 11.821 32.4022 11.549C32.6742 11.277 32.9915 11.141 33.3542 11.141C33.7282 11.141 34.0512 11.277 34.3232 11.549C34.5952 11.821 34.7312 12.144 34.7312 12.518C34.7312 12.8807 34.5952 13.198 34.3232 13.47C34.0512 13.742 33.7282 13.878 33.3542 13.878Z" fill="white"/>
</svg>
