<svg width="29" height="66" viewBox="0 0 29 66" fill="none" xmlns="http://www.w3.org/2000/svg">
<g opacity="0.8" clip-path="url(#clip0_6_14)">
<path d="M19.8167 56.8244L14.5 62.1366L9.18335 56.8244C8.5389 56.1805 7.57224 56.1805 6.92779 56.8244C6.28335 57.4683 6.28335 58.4342 6.92779 59.0781L13.3722 65.5171C13.6945 65.8391 14.0972 66 14.5 66C14.9028 66 15.3056 65.8391 15.6278 65.5171L22.0722 59.0781C22.7167 58.4342 22.7167 57.4683 22.0722 56.8244C21.4278 56.1805 20.4611 56.1805 19.8167 56.8244Z" fill="white"/>
<path d="M22.0722 47.9707C21.4278 47.3268 20.4611 47.3268 19.8167 47.9707L14.5 53.2829L9.18335 47.9707C8.5389 47.3268 7.57224 47.3268 6.92779 47.9707C6.28335 48.6146 6.28335 49.5805 6.92779 50.2244L13.3722 56.6634C13.6945 56.9854 14.0972 57.1463 14.5 57.1463C14.9028 57.1463 15.3056 56.9854 15.6278 56.6634L22.0722 50.2244C22.7167 49.5805 22.7167 48.6146 22.0722 47.9707Z" fill="white"/>
<path d="M29 28.9756V14.4878C29 6.51951 22.475 0 14.5 0C6.525 0 0 6.51951 0 14.4878V28.9756C0 36.9439 6.525 43.4634 14.5 43.4634C22.475 43.4634 29 36.9439 29 28.9756ZM14.5 40.2439C8.29722 40.2439 3.22222 35.1732 3.22222 28.9756V14.4878C3.22222 8.29024 8.29722 3.21951 14.5 3.21951C20.7028 3.21951 25.7778 8.29024 25.7778 14.4878V28.9756C25.7778 35.1732 20.7028 40.2439 14.5 40.2439Z" fill="white"/>
<path d="M14.5 8.85364C13.6139 8.85364 12.8889 9.57803 12.8889 10.4634V15.2927C12.8889 16.178 13.6139 16.9024 14.5 16.9024C15.3861 16.9024 16.1111 16.178 16.1111 15.2927V10.4634C16.1111 9.57803 15.3861 8.85364 14.5 8.85364Z" fill="white"/>
</g>
<defs>
<clipPath id="clip0_6_14">
<rect width="29" height="66" fill="white"/>
</clipPath>
</defs>
</svg>
